<svg width="134" height="26" xmlns="http://www.w3.org/2000/svg"><path d="M6.876.548L13.104 19.7 19.332.548h6.588L17.064 26H9.108L.288.548h6.588zm32.576 4.896v5.328h8.604v4.644h-8.604v5.652h9.684V26h-15.84V.548h15.84v4.896h-9.684zm24.332 0v5.328h8.604v4.644h-8.604v5.652h9.684V26h-15.84V.548h15.84v4.896h-9.684zM95.028 26l-5.508-9.612h-1.404V26H81.96V.548h10.512c2.016 0 3.72.348 5.112 1.044 1.392.696 2.436 1.65 3.132 2.862.696 1.212 1.044 2.598 1.044 4.158 0 1.848-.51 3.42-1.53 4.716-1.02 1.296-2.502 2.184-4.446 2.664L101.832 26h-6.804zm-6.912-13.824h3.816c1.224 0 2.124-.27 2.7-.81.576-.54.864-1.338.864-2.394 0-1.008-.294-1.8-.882-2.376-.588-.576-1.482-.864-2.682-.864h-3.816v6.444zm37.508 9.18h-9.54L114.5 26h-6.48L117.344.728h7.092L133.76 26h-6.552l-1.584-4.644zm-1.584-4.68l-3.168-9.36-3.204 9.36h6.372z" fill="#fff" fill-rule="evenodd"/></svg>